<svg width="24" height="25" viewBox="0 0 24 25" fill="none" xmlns="http://www.w3.org/2000/svg">
<path d="M9.08676 5.25917C9.00347 5.17291 8.88933 5.12327 8.76945 5.12116C8.64956 5.11906 8.53375 5.16467 8.44749 5.24795C8.36123 5.33124 8.31159 5.44538 8.30949 5.56526C8.30739 5.68515 8.35299 5.80096 8.43628 5.88721L14.6495 12.1004L8.43628 18.3136C8.38486 18.3522 8.34233 18.4013 8.31156 18.4578C8.2808 18.5142 8.26252 18.5766 8.25796 18.6407C8.25341 18.7048 8.26268 18.7691 8.28516 18.8294C8.30763 18.8896 8.34278 18.9443 8.38823 18.9897C8.43368 19.0351 8.48836 19.0703 8.54858 19.0928C8.60879 19.1152 8.67313 19.1245 8.73724 19.12C8.80135 19.1154 8.86374 19.0971 8.92017 19.0664C8.9766 19.0356 9.02576 18.9931 9.06433 18.9417L15.614 12.4144C15.6962 12.3306 15.7422 12.2178 15.7422 12.1004C15.7422 11.983 15.6962 11.8702 15.614 11.7864L9.08676 5.25917Z" fill="black" stroke="black" stroke-width="0.3"/>
</svg>
