<svg width="24" height="25" viewBox="0 0 24 25" fill="none" xmlns="http://www.w3.org/2000/svg">
<path d="M16.6111 12.0955H12.3889V7.87326C12.3889 7.65849 12.2148 7.48438 12 7.48438C11.7852 7.48438 11.6111 7.65849 11.6111 7.87326V12.0955H7.38889C7.17411 12.0955 7 12.2696 7 12.4844C7 12.6992 7.17411 12.8733 7.38889 12.8733H11.6111V17.0955C11.6111 17.3103 11.7852 17.4844 12 17.4844C12.2148 17.4844 12.3889 17.3103 12.3889 17.0955V12.8733H16.6111C16.8259 12.8733 17 12.6992 17 12.4844C17 12.2696 16.8259 12.0955 16.6111 12.0955Z" fill="#1D1D1B" stroke="black"/>
</svg>
