<svg width="24" height="25" viewBox="0 0 24 25" fill="none" xmlns="http://www.w3.org/2000/svg">
<path d="M14.9132 18.983C14.9965 19.0693 15.1107 19.1189 15.2306 19.121C15.3504 19.1231 15.4662 19.0775 15.5525 18.9942C15.6388 18.911 15.6884 18.7968 15.6905 18.6769C15.6926 18.557 15.647 18.4412 15.5637 18.355L9.35053 12.1418L15.5637 5.92858C15.6151 5.89002 15.6577 5.84086 15.6884 5.78443C15.7192 5.728 15.7375 5.66561 15.742 5.6015C15.7466 5.53739 15.7373 5.47305 15.7148 5.41283C15.6924 5.35262 15.6572 5.29794 15.6118 5.25249C15.5663 5.20704 15.5116 5.17189 15.4514 5.14941C15.3912 5.12694 15.3269 5.11767 15.2628 5.12222C15.1986 5.12678 15.1363 5.14506 15.0798 5.17582C15.0234 5.20659 14.9742 5.24912 14.9357 5.30054L8.38602 11.8278C8.30383 11.9116 8.25779 12.0244 8.25779 12.1418C8.25779 12.2592 8.30383 12.3719 8.38602 12.4558L14.9132 18.983Z" fill="black" stroke="black" stroke-width="0.3"/>
</svg>
