<svg width="24" height="25" viewBox="0 0 24 25" fill="none" xmlns="http://www.w3.org/2000/svg">
<path fill-rule="evenodd" clip-rule="evenodd" d="M9.99982 3.2262C9.30397 3.2262 8.73988 3.7903 8.73988 4.48615V5.74609H15.2598V4.48615C15.2598 3.79029 14.6957 3.2262 13.9998 3.2262H9.99982ZM16.7399 5.74609V4.48615C16.7399 2.97286 15.5131 1.74609 13.9998 1.74609H9.99982C8.48653 1.74609 7.25977 2.97286 7.25977 4.48615V5.74609H2.99982C2.5911 5.74609 2.25977 6.07743 2.25977 6.48615C2.25977 6.89487 2.5911 7.2262 2.99982 7.2262H4.25977V20.4861C4.25977 21.9995 5.48654 23.2262 6.99982 23.2262H16.9998C18.5131 23.2262 19.7399 21.9995 19.7399 20.4861V7.2262H20.9998C21.4085 7.2262 21.7399 6.89487 21.7399 6.48615C21.7399 6.07743 21.4085 5.74609 20.9998 5.74609H16.7399ZM5.73988 7.2262V20.4861C5.73988 21.182 6.30397 21.7461 6.99982 21.7461H16.9998C17.6957 21.7461 18.2598 21.182 18.2598 20.4861V7.2262H5.73988Z" fill="black"/>
<path fill-rule="evenodd" clip-rule="evenodd" d="M9.99982 10.7461C10.4085 10.7461 10.7399 11.0774 10.7399 11.4861V17.4861C10.7399 17.8949 10.4085 18.2262 9.99982 18.2262C9.5911 18.2262 9.25977 17.8949 9.25977 17.4861V11.4861C9.25977 11.0774 9.5911 10.7461 9.99982 10.7461ZM13.9998 10.7461C14.4085 10.7461 14.7399 11.0774 14.7399 11.4861V17.4861C14.7399 17.8949 14.4085 18.2262 13.9998 18.2262C13.5911 18.2262 13.2598 17.8949 13.2598 17.4861V11.4861C13.2598 11.0774 13.5911 10.7461 13.9998 10.7461Z" fill="black"/>
</svg>
